<svg  width="32" height="33" viewBox="0 0 32 33" fill="none" xmlns="http://www.w3.org/2000/svg">
  <defs>
    <g id="logo"  width="52" height="42" viewBox="0 0 108 78">
      <path d="M60.0006 56.8839H61.3794V59.3571H33.0933C32.4107 59.3571 30.4307 57.2582 30.4306 56.5747C30.4306 54.8937 32.1695 53.7923 34.2123 53.7923H35.4472V41.105C34.8708 39.9577 32.9775 35.9943 32.9775 33.3882C32.9775 29.4836 34.0166 27.7494 34.7763 26.4814L34.7768 26.4807C35.2303 25.7248 35.4473 25.3358 35.4473 24.7321V24.0969C35.4497 22.0005 35.4497 20.1891 35.2109 19.8413H35.2085C35.1795 19.8413 34.9529 19.7857 34.2124 19.7857C30.8696 19.7857 25.5684 18.1072 25.5684 13.6027C25.5684 11.9821 27.0854 10.905 28.424 9.95576C28.8847 9.62976 29.3308 9.323 29.6347 9.01868C29.8907 8.76221 30.1871 8.31807 30.5003 7.84889L30.5078 7.83757C31.3641 6.54783 32.4301 4.94646 34.2124 4.94646C34.5984 4.94646 35.4473 3.15195 35.4473 1.23664C35.4473 0.55311 35.9996 0 36.6822 0C40.447 0 42.1136 3.75573 42.6321 5.27003C43.8815 5.86661 46.5611 7.56455 46.5611 11.1294V23.4955C46.5611 25.0461 54.012 26.2584 56.2357 28.2439C57.1352 29.0481 57.9601 29.7872 58.5751 30.4031C58.9825 30.8111 59.4536 31.2258 59.9552 31.6673L60.0006 31.7073C62.6777 34.0621 62.6143 39.3999 62.6143 45.7544V50.7009C62.6143 53.124 61.6085 55.3109 60.0006 56.8839Z" fill="#EA5342"/>
      <path d="M79.0232 22.2588H77.1871C75.7134 22.2588 74.2996 21.6728 73.2577 20.629L70.9559 18.3239C69.9135 17.2805 68.5003 16.6942 67.0265 16.6942H58.2145C57.3335 16.7675 56.5093 17.0193 55.5668 17.6473L55.5545 17.6573C54.8879 18.1047 50.9347 22.1293 50.3649 22.6999C47.7352 25.3333 48.4886 32.5758 53.7032 33.3108C57.1382 33.7908 61.9191 31.1375 61.9191 27.8235C61.9191 25.4084 63.0191 25.505 63.7714 22.969C62.6694 23.6128 61.9191 24.7963 61.9191 26.1629V27.8235C62.0351 29.7365 58.3884 32.6927 56.1309 33.91C55.9302 33.91 54.1074 35.2015 53.9059 35.1852C50.5039 37.1683 44.5123 40.6905 42.1979 42.2425C41.9894 42.3734 41.7927 42.5151 41.596 42.6618C38.9338 44.6472 37.3448 47.9987 37.9787 51.7064C38.1045 52.4409 38.3464 53.1374 38.6425 53.8064L38.6214 53.7923H33.2089C31.6745 53.7923 30.4304 55.0381 30.4304 56.5747C30.4304 58.1112 31.6745 59.357 33.2089 59.357H56.3349C57.1775 59.357 57.8843 58.7986 58.1275 58.0488C58.7294 56.1938 55.9473 53.9654 53.4669 53.8159C54.1131 52.715 54.8575 51.9363 56.1084 51.9363C56.1084 49.9712 59.8257 50.3792 58.4463 48.9812H56.6519C58.3048 50.6561 55.5521 47.5416 55.5521 50.0825C55.5521 50.7278 56.2522 51.338 56.1084 51.9363C57.5745 51.9363 59.4927 51.9363 60.0671 51.9363V57.5019C60.0671 58.5263 60.8964 59.3568 61.9194 59.3568H65.6239H68.8107C70.2316 59.3568 71.1491 57.8053 70.4319 56.5771C69.5781 55.1144 68.0705 54.081 66.3099 53.8613L66.7218 50.5613C68.948 49.1923 70.5891 46.9185 71.0405 44.286C71.6718 40.602 70.1058 37.2753 67.4761 35.285V31.5331H73.033C75.0707 31.5331 77.5954 30.1015 78.6437 28.3517L80.6113 25.0676C81.3521 23.8315 80.463 22.2588 79.0232 22.2588Z" fill="#FBBA3C"/>
      <path d="M11.4165 39.5264C11.4165 40.1739 11.5784 40.7675 11.9021 41.3071C12.2259 41.8197 12.3878 42.2379 12.3878 42.5617C12.3878 42.8585 12.3068 43.1283 12.1449 43.3711C12.01 43.6139 11.8212 43.7353 11.5784 43.7353C11.1197 43.7353 10.742 43.3441 10.4452 42.5617C10.1484 41.7793 10 40.9564 10 40.093C10 38.7979 10.4722 37.6378 11.4165 36.6125C12.3878 35.5872 13.6154 35.0746 15.0993 35.0746C16.0976 35.0746 16.8396 35.5603 17.3252 36.5316C17.8378 37.4759 18.0941 38.5551 18.0941 39.7692C18.0941 40.9833 18.0537 42.13 17.9727 43.2092C17.9188 44.2615 17.8648 45.0844 17.8109 45.6779C17.7569 46.2445 17.649 47.1619 17.4871 48.4299C17.3252 49.671 17.2173 50.5344 17.1633 51.0201C19.3218 51.0201 21.5881 49.9274 23.9624 47.7419C24.2862 43.8568 24.7313 40.8214 25.2979 38.636C25.8915 36.4236 26.4851 34.8723 27.0786 33.9819C27.6722 33.0915 28.3063 32.6464 28.9808 32.6464C29.6823 32.6464 30.2489 32.9566 30.6805 33.5772C31.1392 34.1977 31.3685 34.9397 31.3685 35.8031C31.3685 38.9868 29.9521 42.4268 27.1191 46.1231C26.9572 48.2546 26.8763 50.2241 26.8763 52.0318C26.8763 53.8126 27.1326 55.5528 27.6452 57.2526C28.1848 58.9254 28.4547 59.8562 28.4547 60.045C28.4547 60.2609 28.3063 60.4228 28.0095 60.5307C27.7127 60.6656 27.3889 60.733 27.0382 60.733C26.0939 60.733 25.3249 60.4902 24.7313 60.0046C24.4346 59.7618 24.1917 58.9388 24.0029 57.5359C23.814 56.1329 23.7196 54.8243 23.7196 53.6102C23.7196 52.3691 23.76 51.0336 23.841 49.6036C21.4397 51.6541 19.1599 52.7198 17.0014 52.8008C16.9745 53.1785 16.9475 53.8126 16.9205 54.7029C16.8935 55.5663 16.853 56.2138 16.7991 56.6455C16.7451 57.0502 16.6372 57.5224 16.4753 58.062C16.2055 59.0603 15.558 59.5594 14.5327 59.5594C13.9122 59.5594 13.6019 59.0333 13.6019 57.981C13.6019 56.9018 13.7638 55.0402 14.0875 52.3961C12.8734 51.8834 12.2664 50.9796 12.2664 49.6845C12.2664 48.7402 12.5092 47.9443 12.9948 47.2968C13.4805 46.6223 14.0741 46.285 14.7755 46.285C15.0184 43.8028 15.1398 41.8872 15.1398 40.5382C15.1398 38.1099 14.7621 36.8958 14.0066 36.8958C12.2799 36.8958 11.4165 37.7727 11.4165 39.5264ZM30.0735 36.4911C30.0735 36.0864 30.006 35.7221 29.8711 35.3984C29.7632 35.0476 29.6148 34.8723 29.426 34.8723C28.6705 34.8723 27.9825 37.7996 27.3619 43.6544C29.1696 40.9024 30.0735 38.5146 30.0735 36.4911ZM14.6541 47.5801C14.2764 47.8499 14.0875 48.2141 14.0875 48.6728C14.0875 49.1314 14.1955 49.5092 14.4113 49.806L14.6541 47.5801Z" fill="#634203"/>
      <path d="M32.4534 39.5669C32.4534 39.0812 32.7097 38.663 33.2223 38.3123C33.7349 37.9615 34.1936 37.7861 34.5983 37.7861C35.3268 37.7861 35.691 38.2043 35.691 39.0407C35.691 39.8771 35.4752 40.6056 35.0435 41.2262C34.6118 41.8197 34.0047 42.1165 33.2223 42.1165C32.7097 42.1165 32.4534 41.2666 32.4534 39.5669ZM33.627 59.5594C32.5748 59.5594 31.7788 59.3436 31.2392 58.9119C31.0504 58.723 30.9559 58.0485 30.9559 56.8883C30.9559 55.7282 31.0369 53.7991 31.1988 51.101C31.3876 48.376 31.5495 46.9055 31.6844 46.6897C31.8193 46.4739 32.2375 46.0692 32.939 45.4756C33.6405 44.882 34.1801 44.5852 34.5578 44.5852C34.9625 44.5852 35.1649 45.0979 35.1649 46.1231C35.1649 46.3929 35.0839 46.919 34.9221 47.7015C34.7872 48.4839 34.6253 49.0505 34.4364 49.4012C34.0857 50.2916 33.9103 52.6254 33.9103 56.4027C33.9103 57.1312 33.9912 57.4954 34.1531 57.4954C34.6118 57.4684 35.2458 56.9018 36.0552 55.7956C36.8647 54.6624 37.6606 53.219 38.443 51.4653C39.2524 49.7115 39.7381 48.8347 39.9 48.8347C40.0888 48.8347 40.1833 48.9426 40.1833 49.1584C40.1833 49.9139 39.792 51.1145 39.0096 52.7603C36.8782 57.293 35.0839 59.5594 33.627 59.5594Z" fill="#634203"/>
      <path d="M49.5646 59.5594C48.6472 59.5594 47.9322 59.357 47.4196 58.9523C47.2038 58.7365 47.0958 58.1699 47.0958 57.2526C47.0958 56.3352 47.1363 55.1346 47.2173 53.6507C46.4888 55.5933 45.7468 57.0637 44.9914 58.062C44.2359 59.0603 43.2781 59.5594 42.118 59.5594C40.9848 59.5594 40.0135 59.0603 39.2041 58.062C38.4216 57.0637 38.0304 55.4719 38.0304 53.2864C38.0304 51.101 38.6375 49.1719 39.8516 47.4991C41.0927 45.8263 42.7115 44.9899 44.7081 44.9899C45.6794 44.9899 46.6911 45.3677 47.7434 46.1231C48.1751 40.8619 48.5663 37.8941 48.917 37.2196C49.0789 36.9228 49.4566 36.4911 50.0502 35.9245C50.6708 35.3579 51.1834 35.0746 51.5881 35.0746C51.9928 35.0746 52.1952 35.7086 52.1952 36.9767C52.1952 38.4607 52.0603 39.7422 51.7905 40.8214C51.062 43.6004 50.6033 45.3677 50.4145 46.1231C50.0367 49.037 49.8479 52.4635 49.8479 56.4027C49.8479 57.1312 49.9288 57.4954 50.0907 57.4954C50.5763 57.4684 51.2239 56.9018 52.0333 55.7956C52.8427 54.6894 53.6386 53.2595 54.4211 51.5057C55.2305 49.725 55.7161 48.8347 55.878 48.8347C56.0669 48.8347 56.1613 48.9426 56.1613 49.1584C56.1613 49.9139 55.7701 51.1145 54.9876 52.7603C52.8562 57.293 51.0485 59.5594 49.5646 59.5594ZM44.4653 46.4469C43.7368 46.4469 43.0083 47.027 42.2798 48.1871C41.5514 49.3473 41.1871 50.6963 41.1871 52.2342C41.1871 53.7451 41.376 54.9862 41.7537 55.9575C42.1584 56.9288 42.6576 57.4144 43.2511 57.4144C44.4653 57.4144 45.8547 54.9862 47.4196 50.1297C47.5545 48.6458 47.622 47.7689 47.622 47.4991C46.8395 46.7976 45.7873 46.4469 44.4653 46.4469Z" fill="#634203"/>
      <path d="M57.4788 48.7942L59.7047 48.5514C59.9205 48.5514 60.1094 48.6728 60.2713 48.9156C60.4332 49.1584 60.5141 49.4147 60.5141 49.6845C60.5141 49.9543 60.4197 50.8717 60.2308 52.4365C60.0689 54.0014 59.988 55.2425 59.988 56.1599C59.988 57.0502 60.0689 57.4954 60.2308 57.4954C60.6895 57.4684 61.3235 56.9018 62.1329 55.7956C62.9424 54.6624 63.7383 53.219 64.5207 51.4653C65.3301 49.7115 65.8158 48.8347 65.9777 48.8347C66.1665 48.8347 66.261 48.9426 66.261 49.1584C66.261 49.9139 65.8697 51.1145 65.0873 52.7603C62.9558 57.293 61.1616 59.5594 59.7047 59.5594C58.6525 59.5594 57.8565 59.3436 57.3169 58.9119C57.1281 58.723 57.0336 57.5494 57.0336 55.3909C57.0336 53.2325 57.263 51.3843 57.7216 49.8464C56.1568 49.8464 55.0641 49.3473 54.4435 48.349C54.1197 47.8364 53.9579 47.2563 53.9579 46.6088C53.9579 45.9612 54.0928 45.3946 54.3626 44.909C54.6324 44.4233 55.0101 44.1805 55.4957 44.1805C56.0084 44.1805 56.467 44.4503 56.8717 44.9899C57.3034 45.5026 57.5193 46.0826 57.5193 46.7302C57.5193 47.3777 57.3304 48.0252 56.9527 48.6728C57.0606 48.7537 57.236 48.7942 57.4788 48.7942Z" fill="#634203"/>
      <path d="M64.2731 55.8361L64.516 51.3034C64.516 48.4165 64.6509 46.8381 64.9207 46.5683C65.1905 46.2985 65.6626 45.9073 66.3372 45.3946C67.0386 44.855 67.5378 44.5852 67.8346 44.5852C68.1583 44.5852 68.3607 44.6392 68.4416 44.7471C68.5226 44.855 68.563 45.0709 68.563 45.3946C68.563 46.5548 68.3067 47.7285 67.7941 48.9156C67.3894 51.3978 67.187 53.4348 67.187 55.0267C67.187 56.6185 67.3759 57.4144 67.7536 57.4144C68.4012 57.4144 69.1431 56.8479 69.9795 55.7147C70.8429 54.5545 71.7198 52.8547 72.6101 50.6154C72.6371 50.0218 72.6641 49.4012 72.6911 48.7537C72.718 48.0792 72.745 47.5936 72.772 47.2968C72.799 46.973 72.8125 46.7437 72.8125 46.6088C72.8395 46.4739 73.2172 46.1096 73.9457 45.5161C74.6741 44.8955 75.2272 44.5852 75.6049 44.5852C76.0097 44.5852 76.212 45.0979 76.212 46.1231C76.212 46.3929 76.1311 46.919 75.9692 47.7015C75.8343 48.4839 75.6724 49.0505 75.4835 49.4012C75.2677 51.3169 75.1193 52.9897 75.0384 54.4196C77.6824 51.074 79.0854 49.3068 79.2473 49.118C79.4362 48.9291 79.5981 48.8347 79.733 48.8347C80.0028 48.8347 80.1377 48.9696 80.1377 49.2394C80.1377 49.4012 80.0837 49.5766 79.9758 49.7655C79.1124 51.0336 77.4126 53.2595 74.8765 56.4432C74.7146 59.6538 74.6067 61.8393 74.5527 62.9994C74.4178 66.4259 73.9322 68.8272 73.0958 70.2032C72.2864 71.6062 70.8294 72.3077 68.7249 72.3077C67.8076 72.3077 66.9442 72.0244 66.1348 71.4578C65.3524 70.9182 64.9611 69.9604 64.9611 68.5844C64.9611 67.2353 65.4738 65.8459 66.499 64.4159C67.5513 62.9859 69.4534 60.787 72.2054 57.8192L72.4482 53.4078C71.5309 55.4314 70.627 56.9693 69.7367 58.0215C68.8463 59.0468 67.8615 59.5594 66.7823 59.5594C65.7031 59.5594 65.0151 59.2896 64.7183 58.75C64.4215 58.2104 64.2731 57.2391 64.2731 55.8361ZM72.084 59.7213C69.0082 63.0399 67.4703 65.6975 67.4703 67.694C67.4703 68.6114 67.6322 69.3668 67.956 69.9604C68.2797 70.5539 68.7249 70.8507 69.2915 70.8507C70.1549 70.8507 70.762 70.3786 71.1127 69.4343C71.4634 68.4899 71.7198 66.5743 71.8816 63.6874L72.084 59.7213Z" fill="#634203"/>
      <path d="M88.1362 59.9002C88.0033 58.7892 87.7386 57.7245 87.342 56.7063C86.9468 55.6782 86.1434 54.0662 84.932 51.8702C84.0382 50.2604 83.4872 49.2353 83.2792 48.7949C82.9474 48.0965 82.7258 47.4689 82.6145 46.912C82.5031 46.3551 82.4865 45.8016 82.5645 45.2515C82.7095 44.23 83.169 43.4284 83.9429 42.8469C84.7182 42.2555 85.6068 42.0309 86.6087 42.173C87.6008 42.3138 88.415 42.7901 89.0513 43.6018C89.5345 44.2215 89.8791 45.0771 90.0849 46.1684C90.5735 45.0554 91.207 44.2635 91.9852 43.7927C92.7733 43.3234 93.5946 43.1494 94.4491 43.2706C95.4412 43.4114 96.2329 43.8695 96.8243 44.6448C97.4157 45.4201 97.6459 46.2694 97.5149 47.1927C97.3964 48.0277 97.0731 48.8585 96.5449 49.6854C96.0266 50.5137 95.084 51.5773 93.7173 52.8764C91.9566 54.5505 90.6895 55.8887 89.916 56.8912C89.1537 57.8853 88.5604 58.8883 88.1362 59.9002Z" fill="#634203"/>
    </g>
    <g id="bonus">
      <svg width="32" height="33" viewBox="0 0 32 33" fill="none" xmlns="http://www.w3.org/2000/svg">
      <rect x="0.612372" y="7.63401" width="16.1406" height="25.6631" rx="3.5" transform="rotate(-15 0.612372 7.63401)" stroke="black"/>
      <rect x="15.7873" y="0.611452" width="16.1406" height="25.6631" rx="3.5" transform="rotate(14.8512 15.7873 0.611452)" fill="white" stroke="black"/>
      </svg>
    </g>
    <g id="cart">
        <path d="M22.0151 16.8001C21.7544 16.7993 21.4961 16.8503 21.2552 16.9501C21.0143 17.0499 20.7955 17.1964 20.6116 17.3813L20.0001 17.993L19.3886 17.3815C19.2043 17.1972 18.9855 17.051 18.7446 16.9512C18.5038 16.8514 18.2457 16.8001 17.985 16.8001C17.7244 16.8001 17.4662 16.8514 17.2254 16.9511C16.9846 17.0509 16.7658 17.1971 16.5814 17.3814C16.3971 17.5657 16.2509 17.7845 16.1511 18.0254C16.0514 18.2662 16 18.5243 16 18.785C16 19.0456 16.0513 19.3037 16.1511 19.5446C16.2508 19.7854 16.397 20.0042 16.5813 20.1886L19.6464 23.2537C19.6928 23.3001 19.7479 23.3369 19.8086 23.3621C19.8693 23.3872 19.9343 23.4001 20 23.4001C20.0656 23.4001 20.1306 23.3872 20.1913 23.3621C20.252 23.3369 20.3071 23.3001 20.3535 23.2537L23.4188 20.1886C23.6964 19.9109 23.8855 19.5573 23.9621 19.1722C24.0387 18.7872 23.9993 18.388 23.8491 18.0253C23.6988 17.6626 23.4444 17.3526 23.118 17.1345C22.7915 16.9164 22.4077 16.8 22.0151 16.8001ZM22.7116 19.4813L20.0001 22.193L17.2885 19.4813C17.108 19.2958 17.0078 19.0466 17.0096 18.7877C17.0113 18.5288 17.115 18.2811 17.298 18.098C17.4811 17.9149 17.7289 17.8113 17.9877 17.8096C18.2466 17.8078 18.4958 17.908 18.6813 18.0886L19.6464 19.0536C19.6928 19.1001 19.7479 19.1369 19.8086 19.162C19.8693 19.1871 19.9343 19.2001 20 19.2001C20.0656 19.2001 20.1306 19.1871 20.1913 19.162C20.252 19.1369 20.3071 19.1001 20.3535 19.0536L21.3188 18.0885C21.5043 17.9074 21.7536 17.8068 22.0128 17.8083C22.272 17.8099 22.5201 17.9135 22.7034 18.0968C22.8866 18.28 22.9903 18.5282 22.9918 18.7873C22.9934 19.0465 22.8927 19.2959 22.7116 19.4813Z" fill="black"/>
        <path d="M29.7549 9.06983L16.2549 1.06983C16.1775 1.02397 16.0892 0.999847 15.9992 1C15.9093 1.00015 15.821 1.02458 15.7437 1.0707L2.24375 9.12827C2.16944 9.17262 2.10792 9.23549 2.06519 9.31074C2.02247 9.38599 2.00001 9.47105 2 9.55758V30.5576C2 30.6902 2.05268 30.8174 2.14645 30.9111C2.24021 31.0049 2.36739 31.0576 2.5 31.0576H2.50106L29.5011 31C29.6335 30.9997 29.7604 30.9469 29.8539 30.8532C29.9475 30.7595 30 30.6324 30 30.5V9.50002C30 9.41321 29.9774 9.32791 29.9344 9.25249C29.8914 9.17706 29.8296 9.11412 29.7549 9.06983ZM12 17.0418V18.5C12 18.5929 12.0259 18.6839 12.0747 18.7629C12.1235 18.8419 12.1933 18.9057 12.2764 18.9472L14.0188 19.8184C14.3429 19.9792 14.6258 20.2124 14.8455 20.5C15.0651 20.7876 15.2157 21.1218 15.2855 21.4769L15.5098 22.5981C15.5291 22.6949 15.5767 22.7838 15.6465 22.8536L15.6972 22.9043C15.8714 23.0782 15.9753 23.3103 15.9889 23.556C16.0025 23.8018 15.9249 24.044 15.7709 24.236L15.6097 24.4375L15.4486 24.639C15.247 24.8909 14.9946 25.0975 14.7079 25.2452C14.4211 25.393 14.1064 25.4786 13.7842 25.4964C13.4621 25.5142 13.1399 25.4639 12.8385 25.3488C12.5372 25.2336 12.2635 25.0561 12.0354 24.828L11.8538 24.6463C11.76 24.5526 11.6328 24.4999 11.5002 24.4999C11.3676 24.4999 11.2404 24.5526 11.1466 24.6463C11.0529 24.7401 11.0002 24.8673 11.0002 24.9999C11.0002 25.1325 11.0529 25.2597 11.1466 25.3535L11.3283 25.5351C11.6342 25.8411 11.9975 26.0838 12.3972 26.2493C12.7969 26.4149 13.2254 26.5 13.6581 26.5C14.0907 26.4999 14.5191 26.4145 14.9188 26.2489C15.3185 26.0832 15.6816 25.8403 15.9874 25.5343L16.6096 26.3125C16.6744 26.3936 16.7629 26.4525 16.8627 26.481L16.9973 26.5195C17.7787 26.7455 18.4767 27.1957 19.0049 27.8143C19.5332 28.433 19.8685 29.1928 19.9694 30H8.36938L8.17562 29.3701C7.66354 27.7098 7.51863 25.9581 7.75094 24.2362C7.98325 22.5144 8.58723 20.8637 9.521 19.3985L9.922 18.7685C9.93122 18.754 9.93969 18.739 9.94738 18.7236L10.0631 18.4924C10.2497 18.1157 10.5222 17.7882 10.8587 17.5363C11.1951 17.2843 11.5861 17.1149 12 17.0418ZM17.2908 25.5631L16.6371 24.746C16.8947 24.3727 17.0177 23.9229 16.9857 23.4704C16.9538 23.0179 16.7688 22.5898 16.4612 22.2565L16.2661 21.2807C16.1668 20.7762 15.9529 20.3012 15.6407 19.8925C15.3286 19.4839 14.9267 19.1525 14.4661 18.924L13 18.191V16.6839L15.0452 16.498C15.1301 16.4902 15.2115 16.461 15.2818 16.413C15.3522 16.365 15.4091 16.2998 15.4472 16.2236L15.9472 15.2236C16.0053 15.1052 16.0142 14.9686 15.972 14.8436C15.9298 14.7186 15.8399 14.6153 15.7219 14.5563C15.6039 14.4973 15.4673 14.4873 15.342 14.5285C15.2167 14.5698 15.1127 14.6589 15.0528 14.7764L14.6773 15.5273L9.751 15.975L9.19337 15.1385L9.25881 15.0948C9.63106 14.8456 9.91425 14.4844 10.0673 14.0635C10.2204 13.6425 10.2353 13.1837 10.11 12.7537L11.7236 11.9469C11.8331 11.8921 11.9188 11.7991 11.9642 11.6854L12.5767 10.1541C12.671 9.91789 12.8157 9.70506 13.0008 9.53056C13.1858 9.35605 13.4068 9.22406 13.6481 9.14383L14.8356 8.74795C15.0182 8.68747 15.2066 8.64622 15.3978 8.62489C15.5979 8.85489 15.7776 9.10186 15.9349 9.36302L16.4442 10.2118C16.8079 10.8181 17.0001 11.5118 17 12.2188V13.2642C17 13.9272 17.2634 14.5631 17.7322 15.032C18.2011 15.5008 18.837 15.7642 19.5 15.7642C20.163 15.7642 20.7989 15.5008 21.2678 15.032C21.7366 14.5631 22 13.9272 22 13.2642C21.9999 13.0615 21.9872 12.859 21.9619 12.658C22.1621 12.9166 22.3537 13.1827 22.5365 13.4564C24.1644 15.9041 25.1933 18.7005 25.54 21.6195C25.8407 24.15 25.6165 26.7153 24.8813 29.1551L24.625 30.0104L20.9764 30.0182C20.8765 28.9927 20.4722 28.0205 19.8154 27.2266C19.1586 26.4327 18.2794 25.8534 17.2908 25.5631ZM8.54438 14.1652C8.50505 14.1062 8.47872 14.0395 8.46713 13.9696C8.45554 13.8996 8.45896 13.828 8.47716 13.7595C8.49536 13.691 8.52792 13.6271 8.57269 13.5722C8.61745 13.5172 8.6734 13.4723 8.73681 13.4406L9.18681 13.2156C9.21059 13.4177 9.17813 13.6224 9.09301 13.8072C9.00788 13.992 8.8734 14.1497 8.70438 14.2629L8.639 14.3066L8.54438 14.1652ZM19.683 10.343C20.0965 10.7092 20.4276 11.1588 20.6546 11.6623C20.8816 12.1658 20.9993 12.7117 21 13.264C21.001 13.5427 20.9238 13.8162 20.7772 14.0533C20.6307 14.2904 20.4206 14.4818 20.1709 14.6056C19.9624 14.7092 19.7328 14.7631 19.5 14.7631C19.2673 14.7631 19.0376 14.7092 18.8292 14.6056C18.5794 14.4818 18.3693 14.2905 18.2228 14.0533C18.0762 13.8162 17.999 13.5427 18 13.264V12.2188C17.9999 11.3308 17.7586 10.4596 17.3018 9.69814L16.7926 8.84933C16.7781 8.8252 16.7622 8.80189 16.7474 8.77796C17.5842 9.00533 18.3736 9.38025 19.0786 9.88508C19.2849 10.0323 19.4863 10.1849 19.683 10.343ZM29 30.0011L25.6696 30.0081L25.8393 29.4425C26.6138 26.8717 26.8499 24.1689 26.533 21.5027C26.1678 18.427 25.0838 15.4805 23.3687 12.9015C22.5315 11.6442 21.5057 10.5232 20.3275 9.57789C20.2067 9.47214 20.0806 9.37164 19.9486 9.27733C19.9333 9.26647 19.9175 9.25648 19.9011 9.24739C19.8213 9.18802 19.7411 9.12902 19.6601 9.07114C18.7008 8.38391 17.6058 7.90953 16.4484 7.67977C15.806 7.55151 15.1413 7.59289 14.5197 7.79983L13.3322 8.19564C12.9529 8.32171 12.6058 8.52909 12.3149 8.80329C12.0241 9.07749 11.7967 9.4119 11.6486 9.78314L11.1062 11.1378L8.28944 12.5462C8.0992 12.6413 7.93137 12.7758 7.79708 12.9407C7.66279 13.1057 7.5651 13.2973 7.51051 13.5028C7.45592 13.7084 7.44567 13.9232 7.48044 14.1331C7.51521 14.3429 7.59421 14.5429 7.71219 14.7199L8.08375 15.2771L9.08375 16.7771C9.13367 16.852 9.20287 16.912 9.28405 16.9508C9.36523 16.9897 9.45538 17.0058 9.545 16.9977L9.99019 16.9572C9.65148 17.2659 9.37282 17.6346 9.16825 18.0447L9.06406 18.2531L8.67694 18.8613C7.66533 20.4486 7.01102 22.2369 6.75934 24.1022C6.50767 25.9675 6.66466 27.8652 7.21944 29.6638L7.33731 30.047L3 30.0563V9.84145L16.0009 2.08177L29 9.78496V30.0011Z" fill="black"/>
        <path d="M13.5 22.6875C13.8797 22.6875 14.1875 22.3797 14.1875 22C14.1875 21.6203 13.8797 21.3125 13.5 21.3125C13.1203 21.3125 12.8125 21.6203 12.8125 22C12.8125 22.3797 13.1203 22.6875 13.5 22.6875Z" fill="black"/>
        <path d="M13.8125 12.5C14.1922 12.5 14.5 12.1922 14.5 11.8125C14.5 11.4328 14.1922 11.125 13.8125 11.125C13.4328 11.125 13.125 11.4328 13.125 11.8125C13.125 12.1922 13.4328 12.5 13.8125 12.5Z" fill="black"/>
    </g>
    <g id="order">
      <path d="M30.733 7.06066L16.2038 0.0465327C16.075 -0.0155923 15.925 -0.0155923 15.7962 0.0465327L1.26689 7.06066C1.10489 7.13885 1.00195 7.30291 1.00195 7.48278V24.5171C1.00195 24.697 1.10489 24.861 1.26689 24.9392L15.7961 31.9533C15.8605 31.9844 15.9303 32 16 32C16.0696 32 16.1393 31.9844 16.2038 31.9533L30.733 24.9392C30.895 24.861 30.998 24.697 30.998 24.5171V7.48285C30.998 7.30285 30.895 7.13891 30.733 7.06066ZM16 0.98922L29.451 7.48278L25.5518 9.36516C25.5271 9.34635 25.5011 9.32897 25.4725 9.31516L12.1128 2.86578L16 0.98922ZM11.0541 3.39578L24.4856 9.87991L21.7347 11.208L8.30877 4.72647L11.0541 3.39578ZM24.7999 10.7692V15.6783L22.2303 16.9188V12.0097L24.7999 10.7692ZM30.0605 24.223L16.4687 30.7843V14.7911L22.1423 12.0522C22.3755 11.9397 22.4732 11.6595 22.3606 11.4263C22.2481 11.1932 21.9679 11.0953 21.7347 11.208L16 13.9764L12.6971 12.3819C12.4639 12.2692 12.1837 12.3671 12.0711 12.6002C11.9586 12.8333 12.0563 13.1136 12.2895 13.2262L15.5312 14.7911V30.7843L1.93945 24.2228V8.2296L12.2895 13.2262C12.3551 13.2579 12.4246 13.2729 12.4929 13.2729C12.6671 13.2729 12.8345 13.1753 12.9153 13.0078C13.0279 12.7747 12.9302 12.4945 12.6971 12.3819L2.54889 7.48278L7.20545 5.23478L21.2863 12.0325C21.2884 12.0353 21.2907 12.0379 21.2928 12.0407V17.6657C21.2928 17.827 21.3758 17.9769 21.5124 18.0627C21.5883 18.1103 21.6748 18.1344 21.7616 18.1344C21.8311 18.1344 21.9008 18.119 21.9654 18.0878L25.4725 16.3947C25.6345 16.3165 25.7374 16.1525 25.7374 15.9726V10.3167L30.0605 8.22966V24.223Z" fill="black"/>
    </g>
    <g id="shares">
      <path d="M12.3854 31.377C12.1867 31.3778 11.9888 31.3536 11.7967 31.305C10.8932 31.0731 10.3039 30.3513 9.73483 29.6533C9.43007 29.2201 9.04856 28.8415 8.60762 28.5347C8.10207 28.3155 7.56028 28.1834 7.00704 28.1444C6.10182 28.0188 5.16661 27.8893 4.51738 27.2666C3.86816 26.6439 3.73324 25.745 3.60236 24.8759C3.56162 24.3449 3.42403 23.8248 3.19587 23.3394C2.87621 22.9162 2.48183 22.5499 2.03061 22.2573C1.30355 21.711 0.552267 21.1458 0.310681 20.2779C0.0800502 19.4449 0.425996 18.6118 0.760987 17.8065C1.0081 17.315 1.16269 16.7854 1.21764 16.2422C1.16269 15.6991 1.0081 15.1695 0.760987 14.678C0.42542 13.8727 0.0783205 13.0396 0.310681 12.2066C0.552267 11.3387 1.30412 10.7735 2.03061 10.2272C2.48178 9.93448 2.87614 9.56826 3.19587 9.14509C3.42332 8.65962 3.55994 8.1395 3.59947 7.60854C3.73036 6.73952 3.86528 5.84117 4.5145 5.21791C5.16373 4.59466 6.10124 4.46458 7.00531 4.33949C7.55859 4.30038 8.10038 4.16811 8.60589 3.94871C9.04683 3.64192 9.42834 3.2633 9.7331 2.83006C10.3022 2.13207 10.8914 1.41085 11.7944 1.17892C12.6638 0.957519 13.5304 1.28963 14.3699 1.61122C14.8821 1.8481 15.434 1.99596 15.9999 2.04794C16.5656 1.9953 17.117 1.84688 17.6287 1.60956C18.4677 1.28741 19.3348 0.955305 20.2032 1.17726C21.1066 1.40919 21.6959 2.13097 22.265 2.82895C22.5698 3.2622 22.9513 3.64081 23.3922 3.9476C23.8977 4.16579 24.4393 4.29694 24.9922 4.33506C25.8974 4.46071 26.8332 4.59023 27.4824 5.21348C28.1317 5.83674 28.2666 6.73509 28.3975 7.60356C28.4382 8.13464 28.5758 8.65472 28.8039 9.14011C29.1236 9.56352 29.5179 9.92994 29.9692 10.2228C30.6963 10.7691 31.4475 11.3342 31.6891 12.2016C31.9198 13.0346 31.5738 13.8677 31.2388 14.6736C30.9917 15.1651 30.8371 15.6946 30.7822 16.2378C30.837 16.7811 30.9918 17.3107 31.2394 17.802C31.5744 18.6074 31.9215 19.4404 31.6891 20.2735C31.4475 21.1414 30.6957 21.7065 29.9692 22.2528C29.518 22.5456 29.1237 22.9118 28.8039 23.335C28.5765 23.8204 28.4399 24.3406 28.4003 24.8715C28.2695 25.7405 28.1345 26.6389 27.4853 27.2621C26.8361 27.8854 25.9003 28.0149 24.9957 28.1406C24.4424 28.1794 23.9006 28.3115 23.3951 28.5308C22.9541 28.8376 22.5726 29.2162 22.2679 29.6494C21.6988 30.3474 21.1101 31.0692 20.2066 31.3011C19.3377 31.5225 18.4705 31.1904 17.631 30.8688C17.1184 30.6323 16.5661 30.4849 15.9999 30.4332C15.4342 30.4861 14.8828 30.6347 14.3711 30.8722C13.7477 31.1578 13.0743 31.329 12.3854 31.377ZM12.3848 2.21399C12.2864 2.2131 12.1883 2.22464 12.093 2.24831C11.562 2.38448 11.1128 2.93246 10.6412 3.51309C10.2512 4.06148 9.7571 4.53449 9.18477 4.90739C8.5541 5.20314 7.87107 5.38227 7.17137 5.43544C6.51461 5.44862 5.87599 5.64477 5.33324 6.00003C4.9629 6.52159 4.75838 7.13522 4.74456 7.76629C4.68973 8.43803 4.50331 9.09381 4.19508 9.69916C3.8057 10.2495 3.31156 10.7242 2.73865 11.0984C2.13382 11.5523 1.56358 11.9841 1.42117 12.4916C1.37678 13.1086 1.51808 13.7247 1.82823 14.2668C2.13607 14.8866 2.31917 15.5566 2.36791 16.2417C2.31917 16.9268 2.13607 17.5968 1.82823 18.2166C1.51811 18.7586 1.37682 19.3748 1.42117 19.9917C1.56358 20.5015 2.13439 20.9327 2.73865 21.3855C3.31008 21.7599 3.80283 22.2345 4.19104 22.7842C4.49942 23.3897 4.68604 24.0457 4.7411 24.7176C4.7547 25.3486 4.95924 25.9621 5.32978 26.4833C5.87263 26.8389 6.51147 27.0353 7.16848 27.0485C7.86837 27.1013 8.55161 27.2803 9.18247 27.576C9.755 27.9488 10.2493 28.4218 10.6395 28.9703C11.1128 29.5504 11.562 30.0989 12.0919 30.2351C12.7341 30.2768 13.3754 30.141 13.9398 29.8437C14.5864 29.5482 15.2854 29.3726 15.9999 29.3262C16.7133 29.373 17.4111 29.5488 18.0566 29.8443C18.621 30.1429 19.2633 30.2786 19.9062 30.2351C20.4372 30.0989 20.8864 29.5509 21.3575 28.9703C21.7478 28.4216 22.2423 27.9484 22.815 27.5754C23.4457 27.2797 24.1288 27.1008 24.8284 27.0479C25.4857 27.0348 26.1247 26.8385 26.6677 26.4828C27.038 25.9614 27.2425 25.348 27.2564 24.7171C27.3112 24.0453 27.4977 23.3896 27.8059 22.7842C28.1948 22.2339 28.6886 21.7592 29.2612 21.3849C29.8654 20.9305 30.4362 20.4993 30.5786 19.9912C30.6229 19.3744 30.4816 18.7585 30.1716 18.2166C29.8638 17.5968 29.6806 16.9268 29.6319 16.2417C29.6806 15.5566 29.8638 14.8866 30.1716 14.2668C30.4817 13.7245 30.623 13.1082 30.5786 12.4911C30.4362 11.9813 29.866 11.5501 29.2617 11.0979C28.69 10.7234 28.197 10.2487 27.8088 9.6986C27.5004 9.09309 27.3137 8.43714 27.2587 7.76518C27.2441 7.13407 27.0384 6.52071 26.6666 6.00003C26.1237 5.64394 25.4846 5.44737 24.8273 5.43434C24.1276 5.38134 23.4446 5.20239 22.8139 4.90684C22.2413 4.53388 21.747 4.06067 21.3569 3.51198C20.8835 2.9319 20.4344 2.38392 19.9051 2.24776C19.2624 2.20474 18.6204 2.34041 18.056 2.63854C17.4106 2.93339 16.713 3.1086 15.9999 3.15497C15.2865 3.10815 14.5887 2.93237 13.9433 2.63688C13.4531 2.4105 12.9258 2.26742 12.3848 2.21399Z" fill="black"/>
      <path d="M15.9998 26.4641C13.8938 26.4641 11.835 25.8645 10.084 24.7413C8.33286 23.618 6.96805 22.0215 6.16211 20.1537C5.35618 18.2858 5.14531 16.2304 5.55617 14.2475C5.96703 12.2646 6.98118 10.4431 8.47036 9.01351C9.95954 7.5839 11.8569 6.61032 13.9224 6.21589C15.988 5.82146 18.129 6.0239 20.0747 6.7976C22.0204 7.5713 23.6834 8.88152 24.8534 10.5626C26.0235 12.2436 26.648 14.22 26.648 16.2418C26.6449 18.952 25.5221 21.5504 23.5258 23.4668C21.5296 25.3832 18.8229 26.4611 15.9998 26.4641ZM15.9998 7.1265C14.1218 7.1265 12.2861 7.6611 10.7246 8.6627C9.16315 9.6643 7.94615 11.0879 7.22749 12.7535C6.50883 14.4191 6.3208 16.2519 6.68717 18.0201C7.05353 19.7882 7.95785 21.4124 9.28576 22.6872C10.6137 23.962 12.3055 24.8302 14.1474 25.1819C15.9893 25.5336 17.8984 25.3531 19.6334 24.6632C21.3684 23.9733 22.8513 22.8049 23.8946 21.3059C24.938 19.8069 25.4948 18.0446 25.4948 16.2418C25.4921 13.8251 24.4908 11.5081 22.7108 9.79921C20.9307 8.09034 18.5172 7.12914 15.9998 7.1265Z" fill="black"/>
      <path d="M11.8157 21.0336C11.7017 21.0335 11.5902 21.0011 11.4954 20.9402C11.4007 20.8794 11.3268 20.793 11.2831 20.6919C11.2395 20.5907 11.2281 20.4795 11.2503 20.3721C11.2726 20.2647 11.3275 20.1661 11.4081 20.0887L19.9558 11.879C20.009 11.8261 20.0726 11.784 20.143 11.755C20.2133 11.726 20.289 11.7107 20.3655 11.71C20.4421 11.7094 20.518 11.7234 20.5889 11.7512C20.6597 11.7791 20.7241 11.8202 20.7782 11.8721C20.8324 11.9241 20.8752 11.9859 20.9042 12.0539C20.9332 12.122 20.9478 12.1949 20.9471 12.2683C20.9464 12.3418 20.9305 12.4145 20.9003 12.482C20.8701 12.5495 20.8262 12.6106 20.7711 12.6617L12.2234 20.8725C12.1151 20.9759 11.9685 21.0338 11.8157 21.0336Z" fill="black"/>
      <path d="M18.9403 21.2454C18.4956 21.2454 18.0608 21.1188 17.691 20.8816C17.3212 20.6444 17.033 20.3073 16.8628 19.9128C16.6926 19.5184 16.6481 19.0843 16.7349 18.6656C16.8216 18.2468 17.0358 17.8622 17.3503 17.5603C17.6647 17.2584 18.0654 17.0528 18.5016 16.9695C18.9378 16.8862 19.3899 16.929 19.8008 17.0924C20.2117 17.2557 20.5629 17.5324 20.81 17.8874C21.0571 18.2424 21.1889 18.6598 21.1889 19.0867C21.1889 19.6593 20.952 20.2083 20.5303 20.6132C20.1086 21.018 19.5367 21.2454 18.9403 21.2454ZM18.9403 18.04C18.7236 18.04 18.5118 18.1017 18.3317 18.2173C18.1515 18.3328 18.0111 18.4971 17.9282 18.6893C17.8453 18.8814 17.8236 19.0929 17.8659 19.2969C17.9081 19.5009 18.0125 19.6883 18.1657 19.8354C18.3189 19.9824 18.5141 20.0826 18.7266 20.1232C18.9391 20.1638 19.1594 20.1429 19.3595 20.0633C19.5597 19.9837 19.7308 19.8489 19.8512 19.676C19.9715 19.503 20.0358 19.2997 20.0358 19.0917C20.0358 18.8128 19.9204 18.5453 19.7149 18.3481C19.5095 18.1508 19.2308 18.04 18.9403 18.04Z" fill="black"/>
      <path d="M13.0594 15.5499C12.6147 15.5499 12.1799 15.4233 11.8102 15.1861C11.4404 14.9489 11.1522 14.6117 10.982 14.2173C10.8118 13.8228 10.7672 13.3888 10.854 12.97C10.9408 12.5513 11.1549 12.1667 11.4694 11.8648C11.7839 11.5629 12.1846 11.3573 12.6208 11.274C13.0569 11.1907 13.5091 11.2334 13.92 11.3968C14.3308 11.5602 14.682 11.8369 14.9291 12.1919C15.1762 12.5469 15.3081 12.9642 15.3081 13.3912C15.3081 13.9637 15.0712 14.5128 14.6495 14.9176C14.2278 15.3224 13.6558 15.5499 13.0594 15.5499ZM13.0594 12.3445C12.8428 12.3445 12.631 12.4062 12.4508 12.5217C12.2707 12.6373 12.1303 12.8015 12.0473 12.9937C11.9644 13.1859 11.9427 13.3973 11.985 13.6013C12.0273 13.8053 12.1316 13.9927 12.2848 14.1398C12.438 14.2869 12.6332 14.3871 12.8457 14.4276C13.0582 14.4682 13.2785 14.4474 13.4787 14.3678C13.6788 14.2882 13.8499 14.1534 13.9703 13.9804C14.0907 13.8075 14.1549 13.6042 14.1549 13.3962C14.1551 13.258 14.1269 13.1211 14.0719 12.9934C14.0169 12.8656 13.9362 12.7496 13.8345 12.6518C13.7327 12.554 13.6119 12.4765 13.4789 12.4235C13.3459 12.3706 13.2034 12.3434 13.0594 12.3434V12.3445Z" fill="black"/>
    </g>
    <g id="search" opacity="0.2">
      <path d="M8.25 14.25C11.5637 14.25 14.25 11.5637 14.25 8.25C14.25 4.93629 11.5637 2.25 8.25 2.25C4.93629 2.25 2.25 4.93629 2.25 8.25C2.25 11.5637 4.93629 14.25 8.25 14.25Z" stroke="#25282B" stroke-width="2" stroke-linecap="round" stroke-linejoin="round"/>
      <path d="M15.75 15.75L12.4875 12.4875" stroke="#25282B" stroke-width="2" stroke-linecap="round" stroke-linejoin="round"/>
</g>
  </defs>
</svg>
