<svg width="52" height="42" viewBox="0 0 108 78" fill="none" xmlns="http://www.w3.org/2000/svg">
<path d="M60.0006 56.8839H61.3794V59.3571H33.0933C32.4107 59.3571 30.4307 57.2582 30.4306 56.5747C30.4306 54.8937 32.1695 53.7923 34.2123 53.7923H35.4472V41.105C34.8708 39.9577 32.9775 35.9943 32.9775 33.3882C32.9775 29.4836 34.0166 27.7494 34.7763 26.4814L34.7768 26.4807C35.2303 25.7248 35.4473 25.3358 35.4473 24.7321V24.0969C35.4497 22.0005 35.4497 20.1891 35.2109 19.8413H35.2085C35.1795 19.8413 34.9529 19.7857 34.2124 19.7857C30.8696 19.7857 25.5684 18.1072 25.5684 13.6027C25.5684 11.9821 27.0854 10.905 28.424 9.95576C28.8847 9.62976 29.3308 9.323 29.6347 9.01868C29.8907 8.76221 30.1871 8.31807 30.5003 7.84889L30.5078 7.83757C31.3641 6.54783 32.4301 4.94646 34.2124 4.94646C34.5984 4.94646 35.4473 3.15195 35.4473 1.23664C35.4473 0.55311 35.9996 0 36.6822 0C40.447 0 42.1136 3.75573 42.6321 5.27003C43.8815 5.86661 46.5611 7.56455 46.5611 11.1294V23.4955C46.5611 25.0461 54.012 26.2584 56.2357 28.2439C57.1352 29.0481 57.9601 29.7872 58.5751 30.4031C58.9825 30.8111 59.4536 31.2258 59.9552 31.6673L60.0006 31.7073C62.6777 34.0621 62.6143 39.3999 62.6143 45.7544V50.7009C62.6143 53.124 61.6085 55.3109 60.0006 56.8839Z" fill="#EA5342"/>
<path d="M79.0232 22.2588H77.1871C75.7134 22.2588 74.2996 21.6728 73.2577 20.629L70.9559 18.3239C69.9135 17.2805 68.5003 16.6942 67.0265 16.6942H58.2145C57.3335 16.7675 56.5093 17.0193 55.5668 17.6473L55.5545 17.6573C54.8879 18.1047 50.9347 22.1293 50.3649 22.6999C47.7352 25.3333 48.4886 32.5758 53.7032 33.3108C57.1382 33.7908 61.9191 31.1375 61.9191 27.8235C61.9191 25.4084 63.0191 25.505 63.7714 22.969C62.6694 23.6128 61.9191 24.7963 61.9191 26.1629V27.8235C62.0351 29.7365 58.3884 32.6927 56.1309 33.91C55.9302 33.91 54.1074 35.2015 53.9059 35.1852C50.5039 37.1683 44.5123 40.6905 42.1979 42.2425C41.9894 42.3734 41.7927 42.5151 41.596 42.6618C38.9338 44.6472 37.3448 47.9987 37.9787 51.7064C38.1045 52.4409 38.3464 53.1374 38.6425 53.8064L38.6214 53.7923H33.2089C31.6745 53.7923 30.4304 55.0381 30.4304 56.5747C30.4304 58.1112 31.6745 59.357 33.2089 59.357H56.3349C57.1775 59.357 57.8843 58.7986 58.1275 58.0488C58.7294 56.1938 55.9473 53.9654 53.4669 53.8159C54.1131 52.715 54.8575 51.9363 56.1084 51.9363C56.1084 49.9712 59.8257 50.3792 58.4463 48.9812H56.6519C58.3048 50.6561 55.5521 47.5416 55.5521 50.0825C55.5521 50.7278 56.2522 51.338 56.1084 51.9363C57.5745 51.9363 59.4927 51.9363 60.0671 51.9363V57.5019C60.0671 58.5263 60.8964 59.3568 61.9194 59.3568H65.6239H68.8107C70.2316 59.3568 71.1491 57.8053 70.4319 56.5771C69.5781 55.1144 68.0705 54.081 66.3099 53.8613L66.7218 50.5613C68.948 49.1923 70.5891 46.9185 71.0405 44.286C71.6718 40.602 70.1058 37.2753 67.4761 35.285V31.5331H73.033C75.0707 31.5331 77.5954 30.1015 78.6437 28.3517L80.6113 25.0676C81.3521 23.8315 80.463 22.2588 79.0232 22.2588Z" fill="#FBBA3C"/>
<g filter="url(#filter0_d)">
<path d="M11.4165 39.5264C11.4165 40.1739 11.5784 40.7675 11.9021 41.3071C12.2259 41.8197 12.3878 42.2379 12.3878 42.5617C12.3878 42.8585 12.3068 43.1283 12.1449 43.3711C12.01 43.6139 11.8212 43.7353 11.5784 43.7353C11.1197 43.7353 10.742 43.3441 10.4452 42.5617C10.1484 41.7793 10 40.9564 10 40.093C10 38.7979 10.4722 37.6378 11.4165 36.6125C12.3878 35.5872 13.6154 35.0746 15.0993 35.0746C16.0976 35.0746 16.8396 35.5603 17.3252 36.5316C17.8378 37.4759 18.0941 38.5551 18.0941 39.7692C18.0941 40.9833 18.0537 42.13 17.9727 43.2092C17.9188 44.2615 17.8648 45.0844 17.8109 45.6779C17.7569 46.2445 17.649 47.1619 17.4871 48.4299C17.3252 49.671 17.2173 50.5344 17.1633 51.0201C19.3218 51.0201 21.5881 49.9274 23.9624 47.7419C24.2862 43.8568 24.7313 40.8214 25.2979 38.636C25.8915 36.4236 26.4851 34.8723 27.0786 33.9819C27.6722 33.0915 28.3063 32.6464 28.9808 32.6464C29.6823 32.6464 30.2489 32.9566 30.6805 33.5772C31.1392 34.1977 31.3685 34.9397 31.3685 35.8031C31.3685 38.9868 29.9521 42.4268 27.1191 46.1231C26.9572 48.2546 26.8763 50.2241 26.8763 52.0318C26.8763 53.8126 27.1326 55.5528 27.6452 57.2526C28.1848 58.9254 28.4547 59.8562 28.4547 60.045C28.4547 60.2609 28.3063 60.4228 28.0095 60.5307C27.7127 60.6656 27.3889 60.733 27.0382 60.733C26.0939 60.733 25.3249 60.4902 24.7313 60.0046C24.4346 59.7618 24.1917 58.9388 24.0029 57.5359C23.814 56.1329 23.7196 54.8243 23.7196 53.6102C23.7196 52.3691 23.76 51.0336 23.841 49.6036C21.4397 51.6541 19.1599 52.7198 17.0014 52.8008C16.9745 53.1785 16.9475 53.8126 16.9205 54.7029C16.8935 55.5663 16.853 56.2138 16.7991 56.6455C16.7451 57.0502 16.6372 57.5224 16.4753 58.062C16.2055 59.0603 15.558 59.5594 14.5327 59.5594C13.9122 59.5594 13.6019 59.0333 13.6019 57.981C13.6019 56.9018 13.7638 55.0402 14.0875 52.3961C12.8734 51.8834 12.2664 50.9796 12.2664 49.6845C12.2664 48.7402 12.5092 47.9443 12.9948 47.2968C13.4805 46.6223 14.0741 46.285 14.7755 46.285C15.0184 43.8028 15.1398 41.8872 15.1398 40.5382C15.1398 38.1099 14.7621 36.8958 14.0066 36.8958C12.2799 36.8958 11.4165 37.7727 11.4165 39.5264ZM30.0735 36.4911C30.0735 36.0864 30.006 35.7221 29.8711 35.3984C29.7632 35.0476 29.6148 34.8723 29.426 34.8723C28.6705 34.8723 27.9825 37.7996 27.3619 43.6544C29.1696 40.9024 30.0735 38.5146 30.0735 36.4911ZM14.6541 47.5801C14.2764 47.8499 14.0875 48.2141 14.0875 48.6728C14.0875 49.1314 14.1955 49.5092 14.4113 49.806L14.6541 47.5801Z" fill="#634203"/>
<path d="M32.4534 39.5669C32.4534 39.0812 32.7097 38.663 33.2223 38.3123C33.7349 37.9615 34.1936 37.7861 34.5983 37.7861C35.3268 37.7861 35.691 38.2043 35.691 39.0407C35.691 39.8771 35.4752 40.6056 35.0435 41.2262C34.6118 41.8197 34.0047 42.1165 33.2223 42.1165C32.7097 42.1165 32.4534 41.2666 32.4534 39.5669ZM33.627 59.5594C32.5748 59.5594 31.7788 59.3436 31.2392 58.9119C31.0504 58.723 30.9559 58.0485 30.9559 56.8883C30.9559 55.7282 31.0369 53.7991 31.1988 51.101C31.3876 48.376 31.5495 46.9055 31.6844 46.6897C31.8193 46.4739 32.2375 46.0692 32.939 45.4756C33.6405 44.882 34.1801 44.5852 34.5578 44.5852C34.9625 44.5852 35.1649 45.0979 35.1649 46.1231C35.1649 46.3929 35.0839 46.919 34.9221 47.7015C34.7872 48.4839 34.6253 49.0505 34.4364 49.4012C34.0857 50.2916 33.9103 52.6254 33.9103 56.4027C33.9103 57.1312 33.9912 57.4954 34.1531 57.4954C34.6118 57.4684 35.2458 56.9018 36.0552 55.7956C36.8647 54.6624 37.6606 53.219 38.443 51.4653C39.2524 49.7115 39.7381 48.8347 39.9 48.8347C40.0888 48.8347 40.1833 48.9426 40.1833 49.1584C40.1833 49.9139 39.792 51.1145 39.0096 52.7603C36.8782 57.293 35.0839 59.5594 33.627 59.5594Z" fill="#634203"/>
<path d="M49.5646 59.5594C48.6472 59.5594 47.9322 59.357 47.4196 58.9523C47.2038 58.7365 47.0958 58.1699 47.0958 57.2526C47.0958 56.3352 47.1363 55.1346 47.2173 53.6507C46.4888 55.5933 45.7468 57.0637 44.9914 58.062C44.2359 59.0603 43.2781 59.5594 42.118 59.5594C40.9848 59.5594 40.0135 59.0603 39.2041 58.062C38.4216 57.0637 38.0304 55.4719 38.0304 53.2864C38.0304 51.101 38.6375 49.1719 39.8516 47.4991C41.0927 45.8263 42.7115 44.9899 44.7081 44.9899C45.6794 44.9899 46.6911 45.3677 47.7434 46.1231C48.1751 40.8619 48.5663 37.8941 48.917 37.2196C49.0789 36.9228 49.4566 36.4911 50.0502 35.9245C50.6708 35.3579 51.1834 35.0746 51.5881 35.0746C51.9928 35.0746 52.1952 35.7086 52.1952 36.9767C52.1952 38.4607 52.0603 39.7422 51.7905 40.8214C51.062 43.6004 50.6033 45.3677 50.4145 46.1231C50.0367 49.037 49.8479 52.4635 49.8479 56.4027C49.8479 57.1312 49.9288 57.4954 50.0907 57.4954C50.5763 57.4684 51.2239 56.9018 52.0333 55.7956C52.8427 54.6894 53.6386 53.2595 54.4211 51.5057C55.2305 49.725 55.7161 48.8347 55.878 48.8347C56.0669 48.8347 56.1613 48.9426 56.1613 49.1584C56.1613 49.9139 55.7701 51.1145 54.9876 52.7603C52.8562 57.293 51.0485 59.5594 49.5646 59.5594ZM44.4653 46.4469C43.7368 46.4469 43.0083 47.027 42.2798 48.1871C41.5514 49.3473 41.1871 50.6963 41.1871 52.2342C41.1871 53.7451 41.376 54.9862 41.7537 55.9575C42.1584 56.9288 42.6576 57.4144 43.2511 57.4144C44.4653 57.4144 45.8547 54.9862 47.4196 50.1297C47.5545 48.6458 47.622 47.7689 47.622 47.4991C46.8395 46.7976 45.7873 46.4469 44.4653 46.4469Z" fill="#634203"/>
<path d="M57.4788 48.7942L59.7047 48.5514C59.9205 48.5514 60.1094 48.6728 60.2713 48.9156C60.4332 49.1584 60.5141 49.4147 60.5141 49.6845C60.5141 49.9543 60.4197 50.8717 60.2308 52.4365C60.0689 54.0014 59.988 55.2425 59.988 56.1599C59.988 57.0502 60.0689 57.4954 60.2308 57.4954C60.6895 57.4684 61.3235 56.9018 62.1329 55.7956C62.9424 54.6624 63.7383 53.219 64.5207 51.4653C65.3301 49.7115 65.8158 48.8347 65.9777 48.8347C66.1665 48.8347 66.261 48.9426 66.261 49.1584C66.261 49.9139 65.8697 51.1145 65.0873 52.7603C62.9558 57.293 61.1616 59.5594 59.7047 59.5594C58.6525 59.5594 57.8565 59.3436 57.3169 58.9119C57.1281 58.723 57.0336 57.5494 57.0336 55.3909C57.0336 53.2325 57.263 51.3843 57.7216 49.8464C56.1568 49.8464 55.0641 49.3473 54.4435 48.349C54.1197 47.8364 53.9579 47.2563 53.9579 46.6088C53.9579 45.9612 54.0928 45.3946 54.3626 44.909C54.6324 44.4233 55.0101 44.1805 55.4957 44.1805C56.0084 44.1805 56.467 44.4503 56.8717 44.9899C57.3034 45.5026 57.5193 46.0826 57.5193 46.7302C57.5193 47.3777 57.3304 48.0252 56.9527 48.6728C57.0606 48.7537 57.236 48.7942 57.4788 48.7942Z" fill="#634203"/>
<path d="M64.2731 55.8361L64.516 51.3034C64.516 48.4165 64.6509 46.8381 64.9207 46.5683C65.1905 46.2985 65.6626 45.9073 66.3372 45.3946C67.0386 44.855 67.5378 44.5852 67.8346 44.5852C68.1583 44.5852 68.3607 44.6392 68.4416 44.7471C68.5226 44.855 68.563 45.0709 68.563 45.3946C68.563 46.5548 68.3067 47.7285 67.7941 48.9156C67.3894 51.3978 67.187 53.4348 67.187 55.0267C67.187 56.6185 67.3759 57.4144 67.7536 57.4144C68.4012 57.4144 69.1431 56.8479 69.9795 55.7147C70.8429 54.5545 71.7198 52.8547 72.6101 50.6154C72.6371 50.0218 72.6641 49.4012 72.6911 48.7537C72.718 48.0792 72.745 47.5936 72.772 47.2968C72.799 46.973 72.8125 46.7437 72.8125 46.6088C72.8395 46.4739 73.2172 46.1096 73.9457 45.5161C74.6741 44.8955 75.2272 44.5852 75.6049 44.5852C76.0097 44.5852 76.212 45.0979 76.212 46.1231C76.212 46.3929 76.1311 46.919 75.9692 47.7015C75.8343 48.4839 75.6724 49.0505 75.4835 49.4012C75.2677 51.3169 75.1193 52.9897 75.0384 54.4196C77.6824 51.074 79.0854 49.3068 79.2473 49.118C79.4362 48.9291 79.5981 48.8347 79.733 48.8347C80.0028 48.8347 80.1377 48.9696 80.1377 49.2394C80.1377 49.4012 80.0837 49.5766 79.9758 49.7655C79.1124 51.0336 77.4126 53.2595 74.8765 56.4432C74.7146 59.6538 74.6067 61.8393 74.5527 62.9994C74.4178 66.4259 73.9322 68.8272 73.0958 70.2032C72.2864 71.6062 70.8294 72.3077 68.7249 72.3077C67.8076 72.3077 66.9442 72.0244 66.1348 71.4578C65.3524 70.9182 64.9611 69.9604 64.9611 68.5844C64.9611 67.2353 65.4738 65.8459 66.499 64.4159C67.5513 62.9859 69.4534 60.787 72.2054 57.8192L72.4482 53.4078C71.5309 55.4314 70.627 56.9693 69.7367 58.0215C68.8463 59.0468 67.8615 59.5594 66.7823 59.5594C65.7031 59.5594 65.0151 59.2896 64.7183 58.75C64.4215 58.2104 64.2731 57.2391 64.2731 55.8361ZM72.084 59.7213C69.0082 63.0399 67.4703 65.6975 67.4703 67.694C67.4703 68.6114 67.6322 69.3668 67.956 69.9604C68.2797 70.5539 68.7249 70.8507 69.2915 70.8507C70.1549 70.8507 70.762 70.3786 71.1127 69.4343C71.4634 68.4899 71.7198 66.5743 71.8816 63.6874L72.084 59.7213Z" fill="#634203"/>
</g>
<g filter="url(#filter1_d)">
<path d="M88.1362 59.9002C88.0033 58.7892 87.7386 57.7245 87.342 56.7063C86.9468 55.6782 86.1434 54.0662 84.932 51.8702C84.0382 50.2604 83.4872 49.2353 83.2792 48.7949C82.9474 48.0965 82.7258 47.4689 82.6145 46.912C82.5031 46.3551 82.4865 45.8016 82.5645 45.2515C82.7095 44.23 83.169 43.4284 83.9429 42.8469C84.7182 42.2555 85.6068 42.0309 86.6087 42.173C87.6008 42.3138 88.415 42.7901 89.0513 43.6018C89.5345 44.2215 89.8791 45.0771 90.0849 46.1684C90.5735 45.0554 91.207 44.2635 91.9852 43.7927C92.7733 43.3234 93.5946 43.1494 94.4491 43.2706C95.4412 43.4114 96.2329 43.8695 96.8243 44.6448C97.4157 45.4201 97.6459 46.2694 97.5149 47.1927C97.3964 48.0277 97.0731 48.8585 96.5449 49.6854C96.0266 50.5137 95.084 51.5773 93.7173 52.8764C91.9566 54.5505 90.6895 55.8887 89.916 56.8912C89.1537 57.8853 88.5604 58.8883 88.1362 59.9002Z" fill="#634203"/>
</g>
<defs>
<filter id="filter0_d" x="0" y="17.6464" width="90.1377" height="59.6613" filterUnits="userSpaceOnUse" color-interpolation-filters="sRGB">
<feFlood flood-opacity="0" result="BackgroundImageFix"/>
<feColorMatrix in="SourceAlpha" type="matrix" values="0 0 0 0 0 0 0 0 0 0 0 0 0 0 0 0 0 0 127 0"/>
<feOffset dy="-5"/>
<feGaussianBlur stdDeviation="5"/>
<feColorMatrix type="matrix" values="0 0 0 0 0 0 0 0 0 0 0 0 0 0 0 0 0 0 0.15 0"/>
<feBlend mode="normal" in2="BackgroundImageFix" result="effect1_dropShadow"/>
<feBlend mode="normal" in="SourceGraphic" in2="effect1_dropShadow" result="shape"/>
</filter>
<filter id="filter1_d" x="72.5164" y="27.1317" width="35.0342" height="37.7685" filterUnits="userSpaceOnUse" color-interpolation-filters="sRGB">
<feFlood flood-opacity="0" result="BackgroundImageFix"/>
<feColorMatrix in="SourceAlpha" type="matrix" values="0 0 0 0 0 0 0 0 0 0 0 0 0 0 0 0 0 0 127 0"/>
<feOffset dy="-5"/>
<feGaussianBlur stdDeviation="5"/>
<feColorMatrix type="matrix" values="0 0 0 0 0 0 0 0 0 0 0 0 0 0 0 0 0 0 0.15 0"/>
<feBlend mode="normal" in2="BackgroundImageFix" result="effect1_dropShadow"/>
<feBlend mode="normal" in="SourceGraphic" in2="effect1_dropShadow" result="shape"/>
</filter>
</defs>
</svg>
