<svg width="32" height="32" viewBox="0 0 32 32" fill="none" xmlns="http://www.w3.org/2000/svg">
<path d="M12.3854 31.377C12.1867 31.3778 11.9888 31.3536 11.7967 31.305C10.8932 31.0731 10.3039 30.3513 9.73483 29.6533C9.43007 29.2201 9.04856 28.8415 8.60762 28.5347C8.10207 28.3155 7.56028 28.1834 7.00704 28.1444C6.10182 28.0188 5.16661 27.8893 4.51738 27.2666C3.86816 26.6439 3.73324 25.745 3.60236 24.8759C3.56162 24.3449 3.42403 23.8248 3.19587 23.3394C2.87621 22.9162 2.48183 22.5499 2.03061 22.2573C1.30355 21.711 0.552267 21.1458 0.310681 20.2779C0.0800502 19.4449 0.425996 18.6118 0.760987 17.8065C1.0081 17.315 1.16269 16.7854 1.21764 16.2422C1.16269 15.6991 1.0081 15.1695 0.760987 14.678C0.42542 13.8727 0.0783205 13.0396 0.310681 12.2066C0.552267 11.3387 1.30412 10.7735 2.03061 10.2272C2.48178 9.93448 2.87614 9.56826 3.19587 9.14509C3.42332 8.65962 3.55994 8.1395 3.59947 7.60854C3.73036 6.73952 3.86528 5.84117 4.5145 5.21791C5.16373 4.59466 6.10124 4.46458 7.00531 4.33949C7.55859 4.30038 8.10038 4.16811 8.60589 3.94871C9.04683 3.64192 9.42834 3.2633 9.7331 2.83006C10.3022 2.13207 10.8914 1.41085 11.7944 1.17892C12.6638 0.957519 13.5304 1.28963 14.3699 1.61122C14.8821 1.8481 15.434 1.99596 15.9999 2.04794C16.5656 1.9953 17.117 1.84688 17.6287 1.60956C18.4677 1.28741 19.3348 0.955305 20.2032 1.17726C21.1066 1.40919 21.6959 2.13097 22.265 2.82895C22.5698 3.2622 22.9513 3.64081 23.3922 3.9476C23.8977 4.16579 24.4393 4.29694 24.9922 4.33506C25.8974 4.46071 26.8332 4.59023 27.4824 5.21348C28.1317 5.83674 28.2666 6.73509 28.3975 7.60356C28.4382 8.13464 28.5758 8.65472 28.8039 9.14011C29.1236 9.56352 29.5179 9.92994 29.9692 10.2228C30.6963 10.7691 31.4475 11.3342 31.6891 12.2016C31.9198 13.0346 31.5738 13.8677 31.2388 14.6736C30.9917 15.1651 30.8371 15.6946 30.7822 16.2378C30.837 16.7811 30.9918 17.3107 31.2394 17.802C31.5744 18.6074 31.9215 19.4404 31.6891 20.2735C31.4475 21.1414 30.6957 21.7065 29.9692 22.2528C29.518 22.5456 29.1237 22.9118 28.8039 23.335C28.5765 23.8204 28.4399 24.3406 28.4003 24.8715C28.2695 25.7405 28.1345 26.6389 27.4853 27.2621C26.8361 27.8854 25.9003 28.0149 24.9957 28.1406C24.4424 28.1794 23.9006 28.3115 23.3951 28.5308C22.9541 28.8376 22.5726 29.2162 22.2679 29.6494C21.6988 30.3474 21.1101 31.0692 20.2066 31.3011C19.3377 31.5225 18.4705 31.1904 17.631 30.8688C17.1184 30.6323 16.5661 30.4849 15.9999 30.4332C15.4342 30.4861 14.8828 30.6347 14.3711 30.8722C13.7477 31.1578 13.0743 31.329 12.3854 31.377ZM12.3848 2.21399C12.2864 2.2131 12.1883 2.22464 12.093 2.24831C11.562 2.38448 11.1128 2.93246 10.6412 3.51309C10.2512 4.06148 9.7571 4.53449 9.18477 4.90739C8.5541 5.20314 7.87107 5.38227 7.17137 5.43544C6.51461 5.44862 5.87599 5.64477 5.33324 6.00003C4.9629 6.52159 4.75838 7.13522 4.74456 7.76629C4.68973 8.43803 4.50331 9.09381 4.19508 9.69916C3.8057 10.2495 3.31156 10.7242 2.73865 11.0984C2.13382 11.5523 1.56358 11.9841 1.42117 12.4916C1.37678 13.1086 1.51808 13.7247 1.82823 14.2668C2.13607 14.8866 2.31917 15.5566 2.36791 16.2417C2.31917 16.9268 2.13607 17.5968 1.82823 18.2166C1.51811 18.7586 1.37682 19.3748 1.42117 19.9917C1.56358 20.5015 2.13439 20.9327 2.73865 21.3855C3.31008 21.7599 3.80283 22.2345 4.19104 22.7842C4.49942 23.3897 4.68604 24.0457 4.7411 24.7176C4.7547 25.3486 4.95924 25.9621 5.32978 26.4833C5.87263 26.8389 6.51147 27.0353 7.16848 27.0485C7.86837 27.1013 8.55161 27.2803 9.18247 27.576C9.755 27.9488 10.2493 28.4218 10.6395 28.9703C11.1128 29.5504 11.562 30.0989 12.0919 30.2351C12.7341 30.2768 13.3754 30.141 13.9398 29.8437C14.5864 29.5482 15.2854 29.3726 15.9999 29.3262C16.7133 29.373 17.4111 29.5488 18.0566 29.8443C18.621 30.1429 19.2633 30.2786 19.9062 30.2351C20.4372 30.0989 20.8864 29.5509 21.3575 28.9703C21.7478 28.4216 22.2423 27.9484 22.815 27.5754C23.4457 27.2797 24.1288 27.1008 24.8284 27.0479C25.4857 27.0348 26.1247 26.8385 26.6677 26.4828C27.038 25.9614 27.2425 25.348 27.2564 24.7171C27.3112 24.0453 27.4977 23.3896 27.8059 22.7842C28.1948 22.2339 28.6886 21.7592 29.2612 21.3849C29.8654 20.9305 30.4362 20.4993 30.5786 19.9912C30.6229 19.3744 30.4816 18.7585 30.1716 18.2166C29.8638 17.5968 29.6806 16.9268 29.6319 16.2417C29.6806 15.5566 29.8638 14.8866 30.1716 14.2668C30.4817 13.7245 30.623 13.1082 30.5786 12.4911C30.4362 11.9813 29.866 11.5501 29.2617 11.0979C28.69 10.7234 28.197 10.2487 27.8088 9.6986C27.5004 9.09309 27.3137 8.43714 27.2587 7.76518C27.2441 7.13407 27.0384 6.52071 26.6666 6.00003C26.1237 5.64394 25.4846 5.44737 24.8273 5.43434C24.1276 5.38134 23.4446 5.20239 22.8139 4.90684C22.2413 4.53388 21.747 4.06067 21.3569 3.51198C20.8835 2.9319 20.4344 2.38392 19.9051 2.24776C19.2624 2.20474 18.6204 2.34041 18.056 2.63854C17.4106 2.93339 16.713 3.1086 15.9999 3.15497C15.2865 3.10815 14.5887 2.93237 13.9433 2.63688C13.4531 2.4105 12.9258 2.26742 12.3848 2.21399Z" fill="black"/>
<path d="M15.9998 26.4641C13.8938 26.4641 11.835 25.8645 10.084 24.7413C8.33286 23.618 6.96805 22.0215 6.16211 20.1537C5.35618 18.2858 5.14531 16.2304 5.55617 14.2475C5.96703 12.2646 6.98118 10.4431 8.47036 9.01351C9.95954 7.5839 11.8569 6.61032 13.9224 6.21589C15.988 5.82146 18.129 6.0239 20.0747 6.7976C22.0204 7.5713 23.6834 8.88152 24.8534 10.5626C26.0235 12.2436 26.648 14.22 26.648 16.2418C26.6449 18.952 25.5221 21.5504 23.5258 23.4668C21.5296 25.3832 18.8229 26.4611 15.9998 26.4641ZM15.9998 7.1265C14.1218 7.1265 12.2861 7.6611 10.7246 8.6627C9.16315 9.6643 7.94615 11.0879 7.22749 12.7535C6.50883 14.4191 6.3208 16.2519 6.68717 18.0201C7.05353 19.7882 7.95785 21.4124 9.28576 22.6872C10.6137 23.962 12.3055 24.8302 14.1474 25.1819C15.9893 25.5336 17.8984 25.3531 19.6334 24.6632C21.3684 23.9733 22.8513 22.8049 23.8946 21.3059C24.938 19.8069 25.4948 18.0446 25.4948 16.2418C25.4921 13.8251 24.4908 11.5081 22.7108 9.79921C20.9307 8.09034 18.5172 7.12914 15.9998 7.1265Z" fill="black"/>
<path d="M11.8157 21.0336C11.7017 21.0335 11.5902 21.0011 11.4954 20.9402C11.4007 20.8794 11.3268 20.793 11.2831 20.6919C11.2395 20.5907 11.2281 20.4795 11.2503 20.3721C11.2726 20.2647 11.3275 20.1661 11.4081 20.0887L19.9558 11.879C20.009 11.8261 20.0726 11.784 20.143 11.755C20.2133 11.726 20.289 11.7107 20.3655 11.71C20.4421 11.7094 20.518 11.7234 20.5889 11.7512C20.6597 11.7791 20.7241 11.8202 20.7782 11.8721C20.8324 11.9241 20.8752 11.9859 20.9042 12.0539C20.9332 12.122 20.9478 12.1949 20.9471 12.2683C20.9464 12.3418 20.9305 12.4145 20.9003 12.482C20.8701 12.5495 20.8262 12.6106 20.7711 12.6617L12.2234 20.8725C12.1151 20.9759 11.9685 21.0338 11.8157 21.0336Z" fill="black"/>
<path d="M18.9403 21.2454C18.4956 21.2454 18.0608 21.1188 17.691 20.8816C17.3212 20.6444 17.033 20.3073 16.8628 19.9128C16.6926 19.5184 16.6481 19.0843 16.7349 18.6656C16.8216 18.2468 17.0358 17.8622 17.3503 17.5603C17.6647 17.2584 18.0654 17.0528 18.5016 16.9695C18.9378 16.8862 19.3899 16.929 19.8008 17.0924C20.2117 17.2557 20.5629 17.5324 20.81 17.8874C21.0571 18.2424 21.1889 18.6598 21.1889 19.0867C21.1889 19.6593 20.952 20.2083 20.5303 20.6132C20.1086 21.018 19.5367 21.2454 18.9403 21.2454ZM18.9403 18.04C18.7236 18.04 18.5118 18.1017 18.3317 18.2173C18.1515 18.3328 18.0111 18.4971 17.9282 18.6893C17.8453 18.8814 17.8236 19.0929 17.8659 19.2969C17.9081 19.5009 18.0125 19.6883 18.1657 19.8354C18.3189 19.9824 18.5141 20.0826 18.7266 20.1232C18.9391 20.1638 19.1594 20.1429 19.3595 20.0633C19.5597 19.9837 19.7308 19.8489 19.8512 19.676C19.9715 19.503 20.0358 19.2997 20.0358 19.0917C20.0358 18.8128 19.9204 18.5453 19.7149 18.3481C19.5095 18.1508 19.2308 18.04 18.9403 18.04Z" fill="black"/>
<path d="M13.0594 15.5499C12.6147 15.5499 12.1799 15.4233 11.8102 15.1861C11.4404 14.9489 11.1522 14.6117 10.982 14.2173C10.8118 13.8228 10.7672 13.3888 10.854 12.97C10.9408 12.5513 11.1549 12.1667 11.4694 11.8648C11.7839 11.5629 12.1846 11.3573 12.6208 11.274C13.0569 11.1907 13.5091 11.2334 13.92 11.3968C14.3308 11.5602 14.682 11.8369 14.9291 12.1919C15.1762 12.5469 15.3081 12.9642 15.3081 13.3912C15.3081 13.9637 15.0712 14.5128 14.6495 14.9176C14.2278 15.3224 13.6558 15.5499 13.0594 15.5499ZM13.0594 12.3445C12.8428 12.3445 12.631 12.4062 12.4508 12.5217C12.2707 12.6373 12.1303 12.8015 12.0473 12.9937C11.9644 13.1859 11.9427 13.3973 11.985 13.6013C12.0273 13.8053 12.1316 13.9927 12.2848 14.1398C12.438 14.2869 12.6332 14.3871 12.8457 14.4276C13.0582 14.4682 13.2785 14.4474 13.4787 14.3678C13.6788 14.2882 13.8499 14.1534 13.9703 13.9804C14.0907 13.8075 14.1549 13.6042 14.1549 13.3962C14.1551 13.258 14.1269 13.1211 14.0719 12.9934C14.0169 12.8656 13.9362 12.7496 13.8345 12.6518C13.7327 12.554 13.6119 12.4765 13.4789 12.4235C13.3459 12.3706 13.2034 12.3434 13.0594 12.3434V12.3445Z" fill="black"/>
</svg>
